<mxfile host="Electron" modified="2023-09-25T13:45:45.223Z" agent="Mozilla/5.0 (Windows NT 10.0; Win64; x64) AppleWebKit/537.36 (KHTML, like Gecko) draw.io/21.3.7 Chrome/112.0.5615.204 Electron/24.5.0 Safari/537.36" etag="RsDubpxPHp1dgGcK_RRq" version="21.3.7" type="device" pages="3">
  <diagram name="Page-1" id="0UAUdzaUn1aCMaLaOOrZ">
    <mxGraphModel dx="1418" dy="820" grid="1" gridSize="10" guides="1" tooltips="1" connect="1" arrows="1" fold="1" page="1" pageScale="1" pageWidth="827" pageHeight="1169" math="0" shadow="0">
      <root>
        <mxCell id="0" />
        <mxCell id="1" parent="0" />
        <mxCell id="tsE1JIfvCLkGKRg63bT--24" style="edgeStyle=orthogonalEdgeStyle;rounded=0;orthogonalLoop=1;jettySize=auto;html=1;entryX=0;entryY=0.5;entryDx=0;entryDy=0;" parent="1" source="tsE1JIfvCLkGKRg63bT--1" target="tsE1JIfvCLkGKRg63bT--5" edge="1">
          <mxGeometry relative="1" as="geometry" />
        </mxCell>
        <mxCell id="tsE1JIfvCLkGKRg63bT--25" style="edgeStyle=orthogonalEdgeStyle;rounded=0;orthogonalLoop=1;jettySize=auto;html=1;entryX=0;entryY=0.5;entryDx=0;entryDy=0;" parent="1" source="tsE1JIfvCLkGKRg63bT--1" target="tsE1JIfvCLkGKRg63bT--14" edge="1">
          <mxGeometry relative="1" as="geometry" />
        </mxCell>
        <mxCell id="tsE1JIfvCLkGKRg63bT--26" style="edgeStyle=orthogonalEdgeStyle;rounded=0;orthogonalLoop=1;jettySize=auto;html=1;entryX=0;entryY=0.5;entryDx=0;entryDy=0;" parent="1" source="tsE1JIfvCLkGKRg63bT--1" target="tsE1JIfvCLkGKRg63bT--21" edge="1">
          <mxGeometry relative="1" as="geometry" />
        </mxCell>
        <mxCell id="tsE1JIfvCLkGKRg63bT--45" style="edgeStyle=orthogonalEdgeStyle;rounded=0;orthogonalLoop=1;jettySize=auto;html=1;entryX=0;entryY=0.5;entryDx=0;entryDy=0;" parent="1" source="tsE1JIfvCLkGKRg63bT--1" target="tsE1JIfvCLkGKRg63bT--42" edge="1">
          <mxGeometry relative="1" as="geometry" />
        </mxCell>
        <mxCell id="tsE1JIfvCLkGKRg63bT--1" value="Usager&lt;br&gt;" style="shape=umlActor;verticalLabelPosition=bottom;verticalAlign=top;html=1;outlineConnect=0;" parent="1" vertex="1">
          <mxGeometry x="40" y="360" width="60" height="110" as="geometry" />
        </mxCell>
        <mxCell id="tsE1JIfvCLkGKRg63bT--4" value="Page d&#39;accueil" style="rounded=0;whiteSpace=wrap;html=1;strokeColor=#000000;fillColor=#FF3333;" parent="1" vertex="1">
          <mxGeometry x="229" y="50" width="370" height="60" as="geometry" />
        </mxCell>
        <mxCell id="tsE1JIfvCLkGKRg63bT--5" value="Login" style="ellipse;whiteSpace=wrap;html=1;" parent="1" vertex="1">
          <mxGeometry x="160" y="210" width="130" height="50" as="geometry" />
        </mxCell>
        <mxCell id="tsE1JIfvCLkGKRg63bT--6" value="Entrer nom d&#39;utilisateur" style="ellipse;whiteSpace=wrap;html=1;" parent="1" vertex="1">
          <mxGeometry x="340" y="160" width="120" height="40" as="geometry" />
        </mxCell>
        <mxCell id="tsE1JIfvCLkGKRg63bT--7" value="Entrer mot de passe" style="ellipse;whiteSpace=wrap;html=1;" parent="1" vertex="1">
          <mxGeometry x="340" y="240" width="120" height="40" as="geometry" />
        </mxCell>
        <mxCell id="tsE1JIfvCLkGKRg63bT--10" value="&amp;lt;&amp;lt;include&amp;gt;&amp;gt;" style="html=1;verticalAlign=bottom;labelBackgroundColor=none;endArrow=open;endFill=0;dashed=1;rounded=0;entryX=0;entryY=0.5;entryDx=0;entryDy=0;" parent="1" source="tsE1JIfvCLkGKRg63bT--5" target="tsE1JIfvCLkGKRg63bT--6" edge="1">
          <mxGeometry width="160" relative="1" as="geometry">
            <mxPoint x="290" y="235" as="sourcePoint" />
            <mxPoint x="450" y="235" as="targetPoint" />
          </mxGeometry>
        </mxCell>
        <mxCell id="tsE1JIfvCLkGKRg63bT--11" value="&amp;lt;&amp;lt;include&amp;gt;&amp;gt;" style="html=1;verticalAlign=bottom;labelBackgroundColor=none;endArrow=open;endFill=0;dashed=1;rounded=0;entryX=0;entryY=0.5;entryDx=0;entryDy=0;" parent="1" target="tsE1JIfvCLkGKRg63bT--7" edge="1">
          <mxGeometry width="160" relative="1" as="geometry">
            <mxPoint x="276" y="253" as="sourcePoint" />
            <mxPoint x="350" y="217" as="targetPoint" />
          </mxGeometry>
        </mxCell>
        <mxCell id="tsE1JIfvCLkGKRg63bT--12" value="" style="endArrow=none;html=1;rounded=0;" parent="1" edge="1">
          <mxGeometry width="50" height="50" relative="1" as="geometry">
            <mxPoint y="600" as="sourcePoint" />
            <mxPoint x="800" y="600" as="targetPoint" />
          </mxGeometry>
        </mxCell>
        <mxCell id="tsE1JIfvCLkGKRg63bT--14" value="Bouton &quot;connexion&quot;" style="ellipse;whiteSpace=wrap;html=1;" parent="1" vertex="1">
          <mxGeometry x="160" y="330" width="130" height="50" as="geometry" />
        </mxCell>
        <mxCell id="tsE1JIfvCLkGKRg63bT--15" value="Verification informations" style="ellipse;whiteSpace=wrap;html=1;" parent="1" vertex="1">
          <mxGeometry x="370" y="335" width="120" height="40" as="geometry" />
        </mxCell>
        <mxCell id="tsE1JIfvCLkGKRg63bT--16" value="changement de page &quot;Lobby&quot;" style="ellipse;whiteSpace=wrap;html=1;" parent="1" vertex="1">
          <mxGeometry x="580" y="332.5" width="180" height="45" as="geometry" />
        </mxCell>
        <mxCell id="tsE1JIfvCLkGKRg63bT--17" value="&amp;lt;&amp;lt;include&amp;gt;&amp;gt;" style="html=1;verticalAlign=bottom;labelBackgroundColor=none;endArrow=open;endFill=0;dashed=1;rounded=0;entryX=0;entryY=0.5;entryDx=0;entryDy=0;" parent="1" target="tsE1JIfvCLkGKRg63bT--15" edge="1">
          <mxGeometry width="160" relative="1" as="geometry">
            <mxPoint x="290" y="356" as="sourcePoint" />
            <mxPoint x="364" y="320" as="targetPoint" />
          </mxGeometry>
        </mxCell>
        <mxCell id="tsE1JIfvCLkGKRg63bT--18" value="&amp;lt;&amp;lt;extend&amp;gt;&amp;gt;" style="html=1;verticalAlign=bottom;labelBackgroundColor=none;endArrow=open;endFill=0;dashed=1;rounded=0;entryX=1;entryY=0.5;entryDx=0;entryDy=0;exitX=0;exitY=0.5;exitDx=0;exitDy=0;" parent="1" source="tsE1JIfvCLkGKRg63bT--16" target="tsE1JIfvCLkGKRg63bT--15" edge="1">
          <mxGeometry width="160" relative="1" as="geometry">
            <mxPoint x="530" y="300" as="sourcePoint" />
            <mxPoint x="690" y="300" as="targetPoint" />
          </mxGeometry>
        </mxCell>
        <mxCell id="tsE1JIfvCLkGKRg63bT--21" value="Bouton &quot;À propos&quot;" style="ellipse;whiteSpace=wrap;html=1;" parent="1" vertex="1">
          <mxGeometry x="160" y="440" width="130" height="50" as="geometry" />
        </mxCell>
        <mxCell id="tsE1JIfvCLkGKRg63bT--22" value="changement de page &quot;À propos&quot;" style="ellipse;whiteSpace=wrap;html=1;" parent="1" vertex="1">
          <mxGeometry x="380" y="442.5" width="180" height="45" as="geometry" />
        </mxCell>
        <mxCell id="tsE1JIfvCLkGKRg63bT--23" value="&amp;lt;&amp;lt;include&amp;gt;&amp;gt;" style="html=1;verticalAlign=bottom;labelBackgroundColor=none;endArrow=open;endFill=0;dashed=1;rounded=0;" parent="1" target="tsE1JIfvCLkGKRg63bT--22" edge="1">
          <mxGeometry width="160" relative="1" as="geometry">
            <mxPoint x="290" y="463" as="sourcePoint" />
            <mxPoint x="370" y="462" as="targetPoint" />
          </mxGeometry>
        </mxCell>
        <mxCell id="tsE1JIfvCLkGKRg63bT--28" value="Page &quot;À propos&quot;" style="rounded=0;whiteSpace=wrap;html=1;fillColor=#FF8000;" parent="1" vertex="1">
          <mxGeometry x="229" y="650" width="370" height="60" as="geometry" />
        </mxCell>
        <mxCell id="tsE1JIfvCLkGKRg63bT--33" style="edgeStyle=orthogonalEdgeStyle;rounded=0;orthogonalLoop=1;jettySize=auto;html=1;entryX=0;entryY=0.5;entryDx=0;entryDy=0;" parent="1" source="tsE1JIfvCLkGKRg63bT--31" target="tsE1JIfvCLkGKRg63bT--32" edge="1">
          <mxGeometry relative="1" as="geometry">
            <mxPoint x="200" y="835" as="targetPoint" />
          </mxGeometry>
        </mxCell>
        <mxCell id="tsE1JIfvCLkGKRg63bT--31" value="Usager&lt;br&gt;" style="shape=umlActor;verticalLabelPosition=bottom;verticalAlign=top;html=1;outlineConnect=0;" parent="1" vertex="1">
          <mxGeometry x="90" y="780" width="60" height="110" as="geometry" />
        </mxCell>
        <mxCell id="tsE1JIfvCLkGKRg63bT--32" value="Bouton &quot;Retourner à l&#39;accueil&quot;" style="ellipse;whiteSpace=wrap;html=1;" parent="1" vertex="1">
          <mxGeometry x="200" y="810" width="160" height="50" as="geometry" />
        </mxCell>
        <mxCell id="tsE1JIfvCLkGKRg63bT--35" value="changement de page &quot;Accueil&quot;" style="ellipse;whiteSpace=wrap;html=1;" parent="1" vertex="1">
          <mxGeometry x="450" y="815" width="180" height="45" as="geometry" />
        </mxCell>
        <mxCell id="tsE1JIfvCLkGKRg63bT--36" value="&amp;lt;&amp;lt;include&amp;gt;&amp;gt;" style="html=1;verticalAlign=bottom;labelBackgroundColor=none;endArrow=open;endFill=0;dashed=1;rounded=0;" parent="1" target="tsE1JIfvCLkGKRg63bT--35" edge="1">
          <mxGeometry width="160" relative="1" as="geometry">
            <mxPoint x="360" y="835.5" as="sourcePoint" />
            <mxPoint x="440" y="834.5" as="targetPoint" />
          </mxGeometry>
        </mxCell>
        <mxCell id="tsE1JIfvCLkGKRg63bT--38" value="" style="endArrow=none;html=1;rounded=0;" parent="1" edge="1">
          <mxGeometry width="50" height="50" relative="1" as="geometry">
            <mxPoint y="1000" as="sourcePoint" />
            <mxPoint x="800" y="1000" as="targetPoint" />
          </mxGeometry>
        </mxCell>
        <mxCell id="tsE1JIfvCLkGKRg63bT--39" value="Page &quot;Palmarès&quot;" style="rounded=0;whiteSpace=wrap;html=1;fillColor=#FFFF33;" parent="1" vertex="1">
          <mxGeometry x="229" y="1040" width="370" height="60" as="geometry" />
        </mxCell>
        <mxCell id="tsE1JIfvCLkGKRg63bT--46" style="edgeStyle=orthogonalEdgeStyle;rounded=0;orthogonalLoop=1;jettySize=auto;html=1;entryX=0;entryY=0.5;entryDx=0;entryDy=0;" parent="1" source="tsE1JIfvCLkGKRg63bT--40" target="tsE1JIfvCLkGKRg63bT--41" edge="1">
          <mxGeometry relative="1" as="geometry" />
        </mxCell>
        <mxCell id="tsE1JIfvCLkGKRg63bT--81" style="edgeStyle=orthogonalEdgeStyle;rounded=0;orthogonalLoop=1;jettySize=auto;html=1;entryX=0;entryY=0.5;entryDx=0;entryDy=0;" parent="1" source="tsE1JIfvCLkGKRg63bT--40" target="tsE1JIfvCLkGKRg63bT--78" edge="1">
          <mxGeometry relative="1" as="geometry" />
        </mxCell>
        <mxCell id="tsE1JIfvCLkGKRg63bT--40" value="Usager&lt;br&gt;" style="shape=umlActor;verticalLabelPosition=bottom;verticalAlign=top;html=1;outlineConnect=0;" parent="1" vertex="1">
          <mxGeometry x="90" y="1250" width="60" height="110" as="geometry" />
        </mxCell>
        <mxCell id="tsE1JIfvCLkGKRg63bT--41" value="Bouton &quot;Retourner à l&#39;accueil&quot;" style="ellipse;whiteSpace=wrap;html=1;" parent="1" vertex="1">
          <mxGeometry x="200" y="1240" width="160" height="50" as="geometry" />
        </mxCell>
        <mxCell id="tsE1JIfvCLkGKRg63bT--42" value="Bouton &quot;HighScores&quot;" style="ellipse;whiteSpace=wrap;html=1;" parent="1" vertex="1">
          <mxGeometry x="160" y="520" width="130" height="50" as="geometry" />
        </mxCell>
        <mxCell id="tsE1JIfvCLkGKRg63bT--43" value="changement de page &quot;HighScores&quot;" style="ellipse;whiteSpace=wrap;html=1;" parent="1" vertex="1">
          <mxGeometry x="380" y="525" width="180" height="45" as="geometry" />
        </mxCell>
        <mxCell id="tsE1JIfvCLkGKRg63bT--44" value="&amp;lt;&amp;lt;include&amp;gt;&amp;gt;" style="html=1;verticalAlign=bottom;labelBackgroundColor=none;endArrow=open;endFill=0;dashed=1;rounded=0;" parent="1" target="tsE1JIfvCLkGKRg63bT--43" edge="1">
          <mxGeometry width="160" relative="1" as="geometry">
            <mxPoint x="290" y="545.5" as="sourcePoint" />
            <mxPoint x="370" y="544.5" as="targetPoint" />
          </mxGeometry>
        </mxCell>
        <mxCell id="tsE1JIfvCLkGKRg63bT--47" value="changement de page &quot;Accueil&quot;" style="ellipse;whiteSpace=wrap;html=1;" parent="1" vertex="1">
          <mxGeometry x="450" y="1245" width="180" height="45" as="geometry" />
        </mxCell>
        <mxCell id="tsE1JIfvCLkGKRg63bT--48" value="&amp;lt;&amp;lt;include&amp;gt;&amp;gt;" style="html=1;verticalAlign=bottom;labelBackgroundColor=none;endArrow=open;endFill=0;dashed=1;rounded=0;" parent="1" target="tsE1JIfvCLkGKRg63bT--47" edge="1">
          <mxGeometry width="160" relative="1" as="geometry">
            <mxPoint x="360" y="1265.5" as="sourcePoint" />
            <mxPoint x="440" y="1264.5" as="targetPoint" />
          </mxGeometry>
        </mxCell>
        <mxCell id="tsE1JIfvCLkGKRg63bT--49" value="" style="endArrow=none;html=1;rounded=0;" parent="1" edge="1">
          <mxGeometry width="50" height="50" relative="1" as="geometry">
            <mxPoint y="1440" as="sourcePoint" />
            <mxPoint x="800" y="1440" as="targetPoint" />
          </mxGeometry>
        </mxCell>
        <mxCell id="tsE1JIfvCLkGKRg63bT--50" value="Section &quot;Commentaires&quot;" style="rounded=0;whiteSpace=wrap;html=1;fillColor=#33FF33;" parent="1" vertex="1">
          <mxGeometry x="229" y="1490" width="370" height="60" as="geometry" />
        </mxCell>
        <mxCell id="tsE1JIfvCLkGKRg63bT--54" style="edgeStyle=orthogonalEdgeStyle;rounded=0;orthogonalLoop=1;jettySize=auto;html=1;entryX=0;entryY=0.5;entryDx=0;entryDy=0;" parent="1" source="tsE1JIfvCLkGKRg63bT--51" target="tsE1JIfvCLkGKRg63bT--52" edge="1">
          <mxGeometry relative="1" as="geometry" />
        </mxCell>
        <mxCell id="tsE1JIfvCLkGKRg63bT--66" style="edgeStyle=orthogonalEdgeStyle;rounded=0;orthogonalLoop=1;jettySize=auto;html=1;entryX=0;entryY=0.5;entryDx=0;entryDy=0;" parent="1" source="tsE1JIfvCLkGKRg63bT--51" target="tsE1JIfvCLkGKRg63bT--65" edge="1">
          <mxGeometry relative="1" as="geometry" />
        </mxCell>
        <mxCell id="tsE1JIfvCLkGKRg63bT--76" style="edgeStyle=orthogonalEdgeStyle;rounded=0;orthogonalLoop=1;jettySize=auto;html=1;entryX=0;entryY=0.5;entryDx=0;entryDy=0;" parent="1" source="tsE1JIfvCLkGKRg63bT--51" target="tsE1JIfvCLkGKRg63bT--71" edge="1">
          <mxGeometry relative="1" as="geometry" />
        </mxCell>
        <mxCell id="tsE1JIfvCLkGKRg63bT--51" value="Usager&lt;br&gt;" style="shape=umlActor;verticalLabelPosition=bottom;verticalAlign=top;html=1;outlineConnect=0;" parent="1" vertex="1">
          <mxGeometry x="22.25" y="1710" width="60" height="110" as="geometry" />
        </mxCell>
        <mxCell id="tsE1JIfvCLkGKRg63bT--52" value="Bouton &quot;Ajouter nouveau commentaire&quot;" style="ellipse;whiteSpace=wrap;html=1;" parent="1" vertex="1">
          <mxGeometry x="132.25" y="1640" width="160" height="50" as="geometry" />
        </mxCell>
        <mxCell id="tsE1JIfvCLkGKRg63bT--53" value="Ecrire le commentaire" style="ellipse;whiteSpace=wrap;html=1;" parent="1" vertex="1">
          <mxGeometry x="345.75" y="1642.5" width="180" height="45" as="geometry" />
        </mxCell>
        <mxCell id="tsE1JIfvCLkGKRg63bT--56" value="&amp;lt;&amp;lt;include&amp;gt;&amp;gt;" style="html=1;verticalAlign=bottom;labelBackgroundColor=none;endArrow=open;endFill=0;dashed=1;rounded=0;entryX=0;entryY=0.5;entryDx=0;entryDy=0;exitX=1;exitY=0.5;exitDx=0;exitDy=0;" parent="1" source="tsE1JIfvCLkGKRg63bT--52" target="tsE1JIfvCLkGKRg63bT--53" edge="1">
          <mxGeometry width="160" relative="1" as="geometry">
            <mxPoint x="342.25" y="1720" as="sourcePoint" />
            <mxPoint x="332.25" y="1680" as="targetPoint" />
          </mxGeometry>
        </mxCell>
        <mxCell id="tsE1JIfvCLkGKRg63bT--60" value="Bouton &quot;Envoyer&quot;" style="ellipse;whiteSpace=wrap;html=1;" parent="1" vertex="1">
          <mxGeometry x="610" y="1640" width="160" height="50" as="geometry" />
        </mxCell>
        <mxCell id="tsE1JIfvCLkGKRg63bT--64" value="&amp;lt;&amp;lt;include&amp;gt;&amp;gt;" style="html=1;verticalAlign=bottom;labelBackgroundColor=none;endArrow=open;endFill=0;dashed=1;rounded=0;entryX=0;entryY=0.5;entryDx=0;entryDy=0;exitX=1;exitY=0.5;exitDx=0;exitDy=0;" parent="1" source="tsE1JIfvCLkGKRg63bT--53" target="tsE1JIfvCLkGKRg63bT--60" edge="1">
          <mxGeometry width="160" relative="1" as="geometry">
            <mxPoint x="525.75" y="1710" as="sourcePoint" />
            <mxPoint x="579.75" y="1710.5" as="targetPoint" />
          </mxGeometry>
        </mxCell>
        <mxCell id="tsE1JIfvCLkGKRg63bT--65" value="Bouton Éditer" style="ellipse;whiteSpace=wrap;html=1;" parent="1" vertex="1">
          <mxGeometry x="132.25" y="1740" width="160" height="50" as="geometry" />
        </mxCell>
        <mxCell id="tsE1JIfvCLkGKRg63bT--67" value="Modifier le commentaire" style="ellipse;whiteSpace=wrap;html=1;" parent="1" vertex="1">
          <mxGeometry x="346" y="1742.5" width="180" height="45" as="geometry" />
        </mxCell>
        <mxCell id="tsE1JIfvCLkGKRg63bT--68" value="&amp;lt;&amp;lt;include&amp;gt;&amp;gt;" style="html=1;verticalAlign=bottom;labelBackgroundColor=none;endArrow=open;endFill=0;dashed=1;rounded=0;entryX=0;entryY=0.5;entryDx=0;entryDy=0;exitX=1;exitY=0.5;exitDx=0;exitDy=0;" parent="1" target="tsE1JIfvCLkGKRg63bT--67" edge="1">
          <mxGeometry width="160" relative="1" as="geometry">
            <mxPoint x="292.25" y="1765" as="sourcePoint" />
            <mxPoint x="332.5" y="1780" as="targetPoint" />
          </mxGeometry>
        </mxCell>
        <mxCell id="tsE1JIfvCLkGKRg63bT--69" value="Bouton &quot;Envoyer&quot;" style="ellipse;whiteSpace=wrap;html=1;" parent="1" vertex="1">
          <mxGeometry x="610" y="1740" width="160" height="50" as="geometry" />
        </mxCell>
        <mxCell id="tsE1JIfvCLkGKRg63bT--70" value="&amp;lt;&amp;lt;include&amp;gt;&amp;gt;" style="html=1;verticalAlign=bottom;labelBackgroundColor=none;endArrow=open;endFill=0;dashed=1;rounded=0;entryX=0;entryY=0.5;entryDx=0;entryDy=0;exitX=1;exitY=0.5;exitDx=0;exitDy=0;" parent="1" target="tsE1JIfvCLkGKRg63bT--69" edge="1">
          <mxGeometry width="160" relative="1" as="geometry">
            <mxPoint x="526" y="1765" as="sourcePoint" />
            <mxPoint x="579.75" y="1810.5" as="targetPoint" />
          </mxGeometry>
        </mxCell>
        <mxCell id="tsE1JIfvCLkGKRg63bT--71" value="Sélectionner le commentaire" style="ellipse;whiteSpace=wrap;html=1;" parent="1" vertex="1">
          <mxGeometry x="132.25" y="1830" width="160" height="50" as="geometry" />
        </mxCell>
        <mxCell id="tsE1JIfvCLkGKRg63bT--72" value="Bouton &quot;Retirer&quot;" style="ellipse;whiteSpace=wrap;html=1;" parent="1" vertex="1">
          <mxGeometry x="346" y="1832.5" width="180" height="45" as="geometry" />
        </mxCell>
        <mxCell id="tsE1JIfvCLkGKRg63bT--73" value="&amp;lt;&amp;lt;include&amp;gt;&amp;gt;" style="html=1;verticalAlign=bottom;labelBackgroundColor=none;endArrow=open;endFill=0;dashed=1;rounded=0;entryX=0;entryY=0.5;entryDx=0;entryDy=0;exitX=1;exitY=0.5;exitDx=0;exitDy=0;" parent="1" target="tsE1JIfvCLkGKRg63bT--72" edge="1">
          <mxGeometry width="160" relative="1" as="geometry">
            <mxPoint x="292.25" y="1855" as="sourcePoint" />
            <mxPoint x="332.5" y="1870" as="targetPoint" />
          </mxGeometry>
        </mxCell>
        <mxCell id="tsE1JIfvCLkGKRg63bT--74" value="Fenêtre de confirmation" style="ellipse;whiteSpace=wrap;html=1;" parent="1" vertex="1">
          <mxGeometry x="610" y="1830" width="160" height="50" as="geometry" />
        </mxCell>
        <mxCell id="tsE1JIfvCLkGKRg63bT--75" value="&amp;lt;&amp;lt;include&amp;gt;&amp;gt;" style="html=1;verticalAlign=bottom;labelBackgroundColor=none;endArrow=open;endFill=0;dashed=1;rounded=0;entryX=0;entryY=0.5;entryDx=0;entryDy=0;exitX=1;exitY=0.5;exitDx=0;exitDy=0;" parent="1" target="tsE1JIfvCLkGKRg63bT--74" edge="1">
          <mxGeometry width="160" relative="1" as="geometry">
            <mxPoint x="526" y="1855" as="sourcePoint" />
            <mxPoint x="579.75" y="1900.5" as="targetPoint" />
          </mxGeometry>
        </mxCell>
        <mxCell id="tsE1JIfvCLkGKRg63bT--77" value="" style="endArrow=none;html=1;rounded=0;" parent="1" edge="1">
          <mxGeometry width="50" height="50" relative="1" as="geometry">
            <mxPoint y="1940" as="sourcePoint" />
            <mxPoint x="800" y="1940" as="targetPoint" />
          </mxGeometry>
        </mxCell>
        <mxCell id="tsE1JIfvCLkGKRg63bT--78" value="Bouton &quot;Rechercher username&quot;" style="ellipse;whiteSpace=wrap;html=1;" parent="1" vertex="1">
          <mxGeometry x="199" y="1330" width="160" height="50" as="geometry" />
        </mxCell>
        <mxCell id="tsE1JIfvCLkGKRg63bT--79" value="Bouton &quot;Entrer&quot;" style="ellipse;whiteSpace=wrap;html=1;" parent="1" vertex="1">
          <mxGeometry x="449" y="1335" width="180" height="45" as="geometry" />
        </mxCell>
        <mxCell id="tsE1JIfvCLkGKRg63bT--80" value="&amp;lt;&amp;lt;include&amp;gt;&amp;gt;" style="html=1;verticalAlign=bottom;labelBackgroundColor=none;endArrow=open;endFill=0;dashed=1;rounded=0;" parent="1" target="tsE1JIfvCLkGKRg63bT--79" edge="1">
          <mxGeometry width="160" relative="1" as="geometry">
            <mxPoint x="359" y="1355.5" as="sourcePoint" />
            <mxPoint x="439" y="1354.5" as="targetPoint" />
          </mxGeometry>
        </mxCell>
      </root>
    </mxGraphModel>
  </diagram>
  <diagram id="9-zLnGfJdeRp8OYmrKnW" name="Page-2">
    <mxGraphModel dx="3405" dy="1491" grid="1" gridSize="10" guides="1" tooltips="1" connect="1" arrows="1" fold="1" page="1" pageScale="1" pageWidth="827" pageHeight="1169" math="0" shadow="0">
      <root>
        <mxCell id="0" />
        <mxCell id="1" parent="0" />
        <mxCell id="0osZKV2DFoOvkwuitn-0-1" value="Actor" style="shape=umlActor;verticalLabelPosition=bottom;verticalAlign=top;html=1;outlineConnect=0;" parent="1" vertex="1">
          <mxGeometry x="-827" y="190" width="30" height="60" as="geometry" />
        </mxCell>
        <mxCell id="0osZKV2DFoOvkwuitn-0-2" value="D" style="ellipse;whiteSpace=wrap;html=1;" parent="1" vertex="1">
          <mxGeometry x="-537" width="120" height="80" as="geometry" />
        </mxCell>
        <mxCell id="0osZKV2DFoOvkwuitn-0-3" value="A" style="ellipse;whiteSpace=wrap;html=1;" parent="1" vertex="1">
          <mxGeometry x="-527" y="120" width="120" height="80" as="geometry" />
        </mxCell>
        <mxCell id="0osZKV2DFoOvkwuitn-0-4" value="Alt" style="ellipse;whiteSpace=wrap;html=1;" parent="1" vertex="1">
          <mxGeometry x="-537" y="470" width="120" height="80" as="geometry" />
        </mxCell>
        <mxCell id="0osZKV2DFoOvkwuitn-0-5" value="Space bar" style="ellipse;whiteSpace=wrap;html=1;" parent="1" vertex="1">
          <mxGeometry x="-527" y="354.5" width="120" height="80" as="geometry" />
        </mxCell>
        <mxCell id="0osZKV2DFoOvkwuitn-0-6" value="W" style="ellipse;whiteSpace=wrap;html=1;" parent="1" vertex="1">
          <mxGeometry x="-537" y="240" width="120" height="80" as="geometry" />
        </mxCell>
        <mxCell id="0osZKV2DFoOvkwuitn-0-7" value="Avancer" style="rounded=0;whiteSpace=wrap;html=1;" parent="1" vertex="1">
          <mxGeometry x="-297" y="10" width="120" height="60" as="geometry" />
        </mxCell>
        <mxCell id="0osZKV2DFoOvkwuitn-0-8" value="reculer" style="rounded=0;whiteSpace=wrap;html=1;" parent="1" vertex="1">
          <mxGeometry x="-287" y="130" width="120" height="60" as="geometry" />
        </mxCell>
        <mxCell id="0osZKV2DFoOvkwuitn-0-9" value="Sauter" style="rounded=0;whiteSpace=wrap;html=1;" parent="1" vertex="1">
          <mxGeometry x="-297" y="250" width="120" height="60" as="geometry" />
        </mxCell>
        <mxCell id="0osZKV2DFoOvkwuitn-0-10" value="Attaquer" style="rounded=0;whiteSpace=wrap;html=1;" parent="1" vertex="1">
          <mxGeometry x="-287" y="364.5" width="120" height="60" as="geometry" />
        </mxCell>
        <mxCell id="0osZKV2DFoOvkwuitn-0-11" value="défense" style="rounded=0;whiteSpace=wrap;html=1;" parent="1" vertex="1">
          <mxGeometry x="-297" y="480" width="120" height="60" as="geometry" />
        </mxCell>
        <mxCell id="0osZKV2DFoOvkwuitn-0-12" value="Mort&lt;br&gt;ennemis" style="rhombus;whiteSpace=wrap;html=1;" parent="1" vertex="1">
          <mxGeometry x="-77" y="355" width="80" height="80" as="geometry" />
        </mxCell>
        <mxCell id="0osZKV2DFoOvkwuitn-0-13" style="edgeStyle=orthogonalEdgeStyle;rounded=0;orthogonalLoop=1;jettySize=auto;html=1;exitX=0;exitY=0.5;exitDx=0;exitDy=0;dashed=1;" parent="1" source="0osZKV2DFoOvkwuitn-0-14" target="0osZKV2DFoOvkwuitn-0-12" edge="1">
          <mxGeometry relative="1" as="geometry" />
        </mxCell>
        <mxCell id="0osZKV2DFoOvkwuitn-0-14" value="Points, expérience&lt;br&gt;loot..." style="rounded=0;whiteSpace=wrap;html=1;" parent="1" vertex="1">
          <mxGeometry x="33" y="265" width="120" height="60" as="geometry" />
        </mxCell>
        <mxCell id="0osZKV2DFoOvkwuitn-0-15" value="Oui" style="text;html=1;strokeColor=none;fillColor=none;align=center;verticalAlign=middle;whiteSpace=wrap;rounded=0;" parent="1" vertex="1">
          <mxGeometry x="-47" y="325" width="60" height="30" as="geometry" />
        </mxCell>
        <mxCell id="0osZKV2DFoOvkwuitn-0-16" style="edgeStyle=orthogonalEdgeStyle;rounded=0;orthogonalLoop=1;jettySize=auto;html=1;exitX=1;exitY=0.5;exitDx=0;exitDy=0;entryX=0;entryY=0.5;entryDx=0;entryDy=0;" parent="1" source="0osZKV2DFoOvkwuitn-0-21" target="0osZKV2DFoOvkwuitn-0-2" edge="1">
          <mxGeometry relative="1" as="geometry" />
        </mxCell>
        <mxCell id="0osZKV2DFoOvkwuitn-0-17" style="edgeStyle=orthogonalEdgeStyle;rounded=0;orthogonalLoop=1;jettySize=auto;html=1;exitX=1;exitY=0.5;exitDx=0;exitDy=0;entryX=0;entryY=0.5;entryDx=0;entryDy=0;" parent="1" source="0osZKV2DFoOvkwuitn-0-21" target="0osZKV2DFoOvkwuitn-0-5" edge="1">
          <mxGeometry relative="1" as="geometry">
            <Array as="points">
              <mxPoint x="-577" y="230" />
              <mxPoint x="-577" y="395" />
            </Array>
          </mxGeometry>
        </mxCell>
        <mxCell id="0osZKV2DFoOvkwuitn-0-18" style="edgeStyle=orthogonalEdgeStyle;rounded=0;orthogonalLoop=1;jettySize=auto;html=1;exitX=1;exitY=0.5;exitDx=0;exitDy=0;entryX=0;entryY=0.5;entryDx=0;entryDy=0;" parent="1" source="0osZKV2DFoOvkwuitn-0-21" target="0osZKV2DFoOvkwuitn-0-3" edge="1">
          <mxGeometry relative="1" as="geometry">
            <Array as="points">
              <mxPoint x="-577" y="230" />
              <mxPoint x="-577" y="160" />
            </Array>
          </mxGeometry>
        </mxCell>
        <mxCell id="0osZKV2DFoOvkwuitn-0-19" style="edgeStyle=orthogonalEdgeStyle;rounded=0;orthogonalLoop=1;jettySize=auto;html=1;exitX=1;exitY=0.5;exitDx=0;exitDy=0;entryX=0;entryY=0.5;entryDx=0;entryDy=0;" parent="1" source="0osZKV2DFoOvkwuitn-0-21" target="0osZKV2DFoOvkwuitn-0-4" edge="1">
          <mxGeometry relative="1" as="geometry" />
        </mxCell>
        <mxCell id="0osZKV2DFoOvkwuitn-0-20" style="edgeStyle=orthogonalEdgeStyle;rounded=0;orthogonalLoop=1;jettySize=auto;html=1;exitX=1;exitY=0.5;exitDx=0;exitDy=0;entryX=0;entryY=0.5;entryDx=0;entryDy=0;" parent="1" source="0osZKV2DFoOvkwuitn-0-21" target="0osZKV2DFoOvkwuitn-0-6" edge="1">
          <mxGeometry relative="1" as="geometry" />
        </mxCell>
        <mxCell id="0osZKV2DFoOvkwuitn-0-21" value="Action personnage joueur" style="rounded=0;whiteSpace=wrap;html=1;" parent="1" vertex="1">
          <mxGeometry x="-737" y="200" width="120" height="60" as="geometry" />
        </mxCell>
        <mxCell id="0osZKV2DFoOvkwuitn-0-22" value="Réduit un pourcentage de dégât" style="rounded=0;whiteSpace=wrap;html=1;" parent="1" vertex="1">
          <mxGeometry x="-60" y="480" width="140" height="60" as="geometry" />
        </mxCell>
        <mxCell id="0osZKV2DFoOvkwuitn-0-23" value="&amp;lt;&amp;lt;include&amp;gt;&amp;gt;" style="endArrow=open;endSize=12;dashed=1;html=1;rounded=0;" parent="1" edge="1">
          <mxGeometry x="-0.0005" y="10" width="160" relative="1" as="geometry">
            <mxPoint x="-417" y="39.65999999999997" as="sourcePoint" />
            <mxPoint x="-297" y="40" as="targetPoint" />
            <mxPoint as="offset" />
          </mxGeometry>
        </mxCell>
        <mxCell id="0osZKV2DFoOvkwuitn-0-24" value="&amp;lt;&amp;lt;include&amp;gt;&amp;gt;" style="endArrow=open;endSize=12;dashed=1;html=1;rounded=0;" parent="1" edge="1">
          <mxGeometry x="-0.0005" y="10" width="160" relative="1" as="geometry">
            <mxPoint x="-407" y="159.65999999999997" as="sourcePoint" />
            <mxPoint x="-287" y="160" as="targetPoint" />
            <mxPoint as="offset" />
          </mxGeometry>
        </mxCell>
        <mxCell id="0osZKV2DFoOvkwuitn-0-25" value="&amp;lt;&amp;lt;include&amp;gt;&amp;gt;" style="endArrow=open;endSize=12;dashed=1;html=1;rounded=0;" parent="1" edge="1">
          <mxGeometry x="-0.1671" y="10" width="160" relative="1" as="geometry">
            <mxPoint x="-417" y="279.65999999999997" as="sourcePoint" />
            <mxPoint x="-297" y="280" as="targetPoint" />
            <mxPoint as="offset" />
          </mxGeometry>
        </mxCell>
        <mxCell id="0osZKV2DFoOvkwuitn-0-26" value="&amp;lt;&amp;lt;include&amp;gt;&amp;gt;" style="endArrow=open;endSize=12;dashed=1;html=1;rounded=0;" parent="1" edge="1">
          <mxGeometry x="-0.1671" y="10" width="160" relative="1" as="geometry">
            <mxPoint x="-407" y="394.15999999999997" as="sourcePoint" />
            <mxPoint x="-287" y="394.5" as="targetPoint" />
            <mxPoint as="offset" />
          </mxGeometry>
        </mxCell>
        <mxCell id="0osZKV2DFoOvkwuitn-0-27" value="&amp;lt;&amp;lt;include&amp;gt;&amp;gt;" style="endArrow=open;endSize=12;dashed=1;html=1;rounded=0;" parent="1" edge="1">
          <mxGeometry x="-0.1671" y="10" width="160" relative="1" as="geometry">
            <mxPoint x="-417" y="509.65999999999997" as="sourcePoint" />
            <mxPoint x="-297" y="510" as="targetPoint" />
            <mxPoint as="offset" />
          </mxGeometry>
        </mxCell>
        <mxCell id="0osZKV2DFoOvkwuitn-0-28" value="&amp;lt;&amp;lt;include&amp;gt;&amp;gt;" style="endArrow=open;endSize=12;dashed=1;html=1;rounded=0;" parent="1" edge="1">
          <mxGeometry x="-0.1671" y="10" width="160" relative="1" as="geometry">
            <mxPoint x="-180" y="509.58000000000004" as="sourcePoint" />
            <mxPoint x="-60" y="509.9200000000001" as="targetPoint" />
            <mxPoint as="offset" />
          </mxGeometry>
        </mxCell>
        <mxCell id="0osZKV2DFoOvkwuitn-0-29" value="&amp;lt;&amp;lt;extends&amp;gt;&amp;gt;" style="endArrow=open;endSize=12;dashed=1;html=1;rounded=0;" parent="1" edge="1">
          <mxGeometry x="-0.1671" y="10" width="160" relative="1" as="geometry">
            <mxPoint x="-77" y="394.0799999999999" as="sourcePoint" />
            <mxPoint x="-167" y="394.0799999999999" as="targetPoint" />
            <mxPoint as="offset" />
          </mxGeometry>
        </mxCell>
        <mxCell id="0osZKV2DFoOvkwuitn-0-30" value="&amp;lt;&amp;lt;extends&amp;gt;&amp;gt;" style="text;html=1;strokeColor=none;fillColor=none;align=center;verticalAlign=middle;whiteSpace=wrap;rounded=0;" parent="1" vertex="1">
          <mxGeometry x="-37" y="274" width="60" height="25" as="geometry" />
        </mxCell>
      </root>
    </mxGraphModel>
  </diagram>
  <diagram id="-sJFpx1yeXM1vfhTHemm" name="Page-4">
    <mxGraphModel dx="1418" dy="1989" grid="1" gridSize="10" guides="1" tooltips="1" connect="1" arrows="1" fold="1" page="1" pageScale="1" pageWidth="827" pageHeight="1169" math="0" shadow="0">
      <root>
        <mxCell id="0" />
        <mxCell id="1" parent="0" />
        <mxCell id="H3f5nsP7hotX9z30VJWl-1" value="" style="rounded=0;whiteSpace=wrap;html=1;" parent="1" vertex="1">
          <mxGeometry x="870" y="-438" width="360" height="240" as="geometry" />
        </mxCell>
        <mxCell id="H3f5nsP7hotX9z30VJWl-35" style="edgeStyle=orthogonalEdgeStyle;rounded=0;orthogonalLoop=1;jettySize=auto;html=1;exitX=0.25;exitY=1;exitDx=0;exitDy=0;entryX=0.445;entryY=-0.033;entryDx=0;entryDy=0;entryPerimeter=0;" parent="1" source="H3f5nsP7hotX9z30VJWl-4" target="H3f5nsP7hotX9z30VJWl-34" edge="1">
          <mxGeometry relative="1" as="geometry" />
        </mxCell>
        <mxCell id="H3f5nsP7hotX9z30VJWl-47" style="edgeStyle=orthogonalEdgeStyle;rounded=0;orthogonalLoop=1;jettySize=auto;html=1;exitX=0.75;exitY=1;exitDx=0;exitDy=0;entryX=0.586;entryY=0.067;entryDx=0;entryDy=0;entryPerimeter=0;" parent="1" source="H3f5nsP7hotX9z30VJWl-4" target="H3f5nsP7hotX9z30VJWl-46" edge="1">
          <mxGeometry relative="1" as="geometry">
            <Array as="points">
              <mxPoint x="628" y="-6" />
              <mxPoint x="772" y="-6" />
            </Array>
          </mxGeometry>
        </mxCell>
        <mxCell id="H3f5nsP7hotX9z30VJWl-4" value="" style="rounded=0;whiteSpace=wrap;html=1;" parent="1" vertex="1">
          <mxGeometry x="350" y="-266" width="370" height="240" as="geometry" />
        </mxCell>
        <mxCell id="H3f5nsP7hotX9z30VJWl-5" value="Description" style="rounded=0;whiteSpace=wrap;html=1;" parent="1" vertex="1">
          <mxGeometry x="890" y="-398" width="120" height="190" as="geometry" />
        </mxCell>
        <mxCell id="H3f5nsP7hotX9z30VJWl-6" value="login/signup" style="rounded=0;whiteSpace=wrap;html=1;" parent="1" vertex="1">
          <mxGeometry x="1150" y="-428" width="70" height="10" as="geometry" />
        </mxCell>
        <mxCell id="H3f5nsP7hotX9z30VJWl-7" value="titre" style="rounded=0;whiteSpace=wrap;html=1;" parent="1" vertex="1">
          <mxGeometry x="890" y="-433" width="60" height="20" as="geometry" />
        </mxCell>
        <mxCell id="H3f5nsP7hotX9z30VJWl-9" value="Lobby" style="rounded=0;whiteSpace=wrap;html=1;" parent="1" vertex="1">
          <mxGeometry x="1060" y="-398" width="120" height="40" as="geometry" />
        </mxCell>
        <mxCell id="H3f5nsP7hotX9z30VJWl-10" value="Palmares" style="rounded=0;whiteSpace=wrap;html=1;" parent="1" vertex="1">
          <mxGeometry x="1060" y="-348" width="120" height="40" as="geometry" />
        </mxCell>
        <mxCell id="H3f5nsP7hotX9z30VJWl-11" value="Commentaires" style="rounded=0;whiteSpace=wrap;html=1;" parent="1" vertex="1">
          <mxGeometry x="1060" y="-298" width="120" height="40" as="geometry" />
        </mxCell>
        <mxCell id="H3f5nsP7hotX9z30VJWl-12" value="A propos" style="rounded=0;whiteSpace=wrap;html=1;" parent="1" vertex="1">
          <mxGeometry x="1060" y="-248" width="120" height="40" as="geometry" />
        </mxCell>
        <mxCell id="H3f5nsP7hotX9z30VJWl-13" value="Accueil" style="text;html=1;align=center;verticalAlign=middle;resizable=0;points=[];autosize=1;strokeColor=none;fillColor=none;" parent="1" vertex="1">
          <mxGeometry x="1000" y="-470" width="60" height="30" as="geometry" />
        </mxCell>
        <mxCell id="H3f5nsP7hotX9z30VJWl-14" value="Lobby" style="text;html=1;align=center;verticalAlign=middle;resizable=0;points=[];autosize=1;strokeColor=none;fillColor=none;" parent="1" vertex="1">
          <mxGeometry x="500" y="-298" width="60" height="30" as="geometry" />
        </mxCell>
        <mxCell id="H3f5nsP7hotX9z30VJWl-15" value="Nouvelle Partie" style="rounded=0;whiteSpace=wrap;html=1;" parent="1" vertex="1">
          <mxGeometry x="390" y="-166" width="120" height="40" as="geometry" />
        </mxCell>
        <mxCell id="H3f5nsP7hotX9z30VJWl-16" value="Reprendre une partie" style="rounded=0;whiteSpace=wrap;html=1;" parent="1" vertex="1">
          <mxGeometry x="550" y="-166" width="120" height="40" as="geometry" />
        </mxCell>
        <mxCell id="H3f5nsP7hotX9z30VJWl-17" value="titre" style="rounded=0;whiteSpace=wrap;html=1;" parent="1" vertex="1">
          <mxGeometry x="370" y="-256" width="60" height="20" as="geometry" />
        </mxCell>
        <mxCell id="H3f5nsP7hotX9z30VJWl-18" value="Menu" style="rounded=0;whiteSpace=wrap;html=1;" parent="1" vertex="1">
          <mxGeometry x="440" y="-256" width="210" height="20" as="geometry" />
        </mxCell>
        <mxCell id="H3f5nsP7hotX9z30VJWl-19" value="Signout" style="rounded=0;whiteSpace=wrap;html=1;" parent="1" vertex="1">
          <mxGeometry x="660" y="-256" width="50" height="20" as="geometry" />
        </mxCell>
        <mxCell id="H3f5nsP7hotX9z30VJWl-20" value="" style="rounded=0;whiteSpace=wrap;html=1;" parent="1" vertex="1">
          <mxGeometry x="170" y="39" width="370" height="240" as="geometry" />
        </mxCell>
        <mxCell id="H3f5nsP7hotX9z30VJWl-23" value="titre" style="rounded=0;whiteSpace=wrap;html=1;" parent="1" vertex="1">
          <mxGeometry x="190" y="49" width="60" height="20" as="geometry" />
        </mxCell>
        <mxCell id="H3f5nsP7hotX9z30VJWl-24" value="Menu" style="rounded=0;whiteSpace=wrap;html=1;" parent="1" vertex="1">
          <mxGeometry x="260" y="49" width="210" height="20" as="geometry" />
        </mxCell>
        <mxCell id="H3f5nsP7hotX9z30VJWl-25" value="Signout" style="rounded=0;whiteSpace=wrap;html=1;" parent="1" vertex="1">
          <mxGeometry x="480" y="49" width="50" height="20" as="geometry" />
        </mxCell>
        <mxCell id="H3f5nsP7hotX9z30VJWl-26" value="Choisir un avatar" style="rounded=0;whiteSpace=wrap;html=1;" parent="1" vertex="1">
          <mxGeometry x="224" y="94" width="280" height="20" as="geometry" />
        </mxCell>
        <mxCell id="H3f5nsP7hotX9z30VJWl-28" value="" style="whiteSpace=wrap;html=1;aspect=fixed;" parent="1" vertex="1">
          <mxGeometry x="180" y="134" width="80" height="80" as="geometry" />
        </mxCell>
        <mxCell id="H3f5nsP7hotX9z30VJWl-29" value="" style="whiteSpace=wrap;html=1;aspect=fixed;" parent="1" vertex="1">
          <mxGeometry x="270" y="134" width="80" height="80" as="geometry" />
        </mxCell>
        <mxCell id="H3f5nsP7hotX9z30VJWl-30" value="" style="whiteSpace=wrap;html=1;aspect=fixed;" parent="1" vertex="1">
          <mxGeometry x="360" y="134" width="80" height="80" as="geometry" />
        </mxCell>
        <mxCell id="H3f5nsP7hotX9z30VJWl-31" value="" style="whiteSpace=wrap;html=1;aspect=fixed;" parent="1" vertex="1">
          <mxGeometry x="450" y="134" width="80" height="80" as="geometry" />
        </mxCell>
        <mxCell id="H3f5nsP7hotX9z30VJWl-33" value="Lancer partie" style="rounded=1;whiteSpace=wrap;html=1;" parent="1" vertex="1">
          <mxGeometry x="305" y="234" width="120" height="26" as="geometry" />
        </mxCell>
        <mxCell id="H3f5nsP7hotX9z30VJWl-34" value="Nouvelle partie&amp;nbsp;" style="text;html=1;align=center;verticalAlign=middle;resizable=0;points=[];autosize=1;strokeColor=none;fillColor=none;" parent="1" vertex="1">
          <mxGeometry x="300" y="9" width="110" height="30" as="geometry" />
        </mxCell>
        <mxCell id="H3f5nsP7hotX9z30VJWl-36" value="" style="rounded=0;whiteSpace=wrap;html=1;" parent="1" vertex="1">
          <mxGeometry x="580" y="39" width="370" height="240" as="geometry" />
        </mxCell>
        <mxCell id="H3f5nsP7hotX9z30VJWl-37" value="titre" style="rounded=0;whiteSpace=wrap;html=1;" parent="1" vertex="1">
          <mxGeometry x="600" y="49" width="60" height="20" as="geometry" />
        </mxCell>
        <mxCell id="H3f5nsP7hotX9z30VJWl-38" value="Menu" style="rounded=0;whiteSpace=wrap;html=1;" parent="1" vertex="1">
          <mxGeometry x="670" y="49" width="210" height="20" as="geometry" />
        </mxCell>
        <mxCell id="H3f5nsP7hotX9z30VJWl-39" value="Signout" style="rounded=0;whiteSpace=wrap;html=1;" parent="1" vertex="1">
          <mxGeometry x="890" y="49" width="50" height="20" as="geometry" />
        </mxCell>
        <mxCell id="H3f5nsP7hotX9z30VJWl-45" value="Reprendre partie" style="rounded=1;whiteSpace=wrap;html=1;" parent="1" vertex="1">
          <mxGeometry x="715" y="234" width="120" height="26" as="geometry" />
        </mxCell>
        <mxCell id="H3f5nsP7hotX9z30VJWl-46" value="Reprendre une partie" style="text;html=1;align=center;verticalAlign=middle;resizable=0;points=[];autosize=1;strokeColor=none;fillColor=none;" parent="1" vertex="1">
          <mxGeometry x="690" y="12" width="140" height="30" as="geometry" />
        </mxCell>
        <mxCell id="H3f5nsP7hotX9z30VJWl-48" value="Stats de progression" style="rounded=0;whiteSpace=wrap;html=1;" parent="1" vertex="1">
          <mxGeometry x="625" y="102" width="305" height="110" as="geometry" />
        </mxCell>
        <mxCell id="H3f5nsP7hotX9z30VJWl-49" value="" style="rounded=0;whiteSpace=wrap;html=1;" parent="1" vertex="1">
          <mxGeometry x="1080" y="-97" width="370" height="240" as="geometry" />
        </mxCell>
        <mxCell id="H3f5nsP7hotX9z30VJWl-50" value="titre" style="rounded=0;whiteSpace=wrap;html=1;" parent="1" vertex="1">
          <mxGeometry x="1100" y="-87" width="60" height="20" as="geometry" />
        </mxCell>
        <mxCell id="H3f5nsP7hotX9z30VJWl-51" value="Menu" style="rounded=0;whiteSpace=wrap;html=1;" parent="1" vertex="1">
          <mxGeometry x="1170" y="-87" width="210" height="20" as="geometry" />
        </mxCell>
        <mxCell id="H3f5nsP7hotX9z30VJWl-52" value="Signout" style="rounded=0;whiteSpace=wrap;html=1;" parent="1" vertex="1">
          <mxGeometry x="1390" y="-87" width="50" height="20" as="geometry" />
        </mxCell>
        <mxCell id="H3f5nsP7hotX9z30VJWl-54" value="Tableau de score" style="rounded=0;whiteSpace=wrap;html=1;" parent="1" vertex="1">
          <mxGeometry x="1112.5" y="-40" width="305" height="160" as="geometry" />
        </mxCell>
        <mxCell id="H3f5nsP7hotX9z30VJWl-55" value="" style="rounded=0;whiteSpace=wrap;html=1;" parent="1" vertex="1">
          <mxGeometry x="1510" y="-97" width="370" height="240" as="geometry" />
        </mxCell>
        <mxCell id="H3f5nsP7hotX9z30VJWl-56" value="titre" style="rounded=0;whiteSpace=wrap;html=1;" parent="1" vertex="1">
          <mxGeometry x="1530" y="-87" width="60" height="20" as="geometry" />
        </mxCell>
        <mxCell id="H3f5nsP7hotX9z30VJWl-57" value="Menu" style="rounded=0;whiteSpace=wrap;html=1;" parent="1" vertex="1">
          <mxGeometry x="1600" y="-87" width="210" height="20" as="geometry" />
        </mxCell>
        <mxCell id="H3f5nsP7hotX9z30VJWl-58" value="Signout" style="rounded=0;whiteSpace=wrap;html=1;" parent="1" vertex="1">
          <mxGeometry x="1820" y="-87" width="50" height="20" as="geometry" />
        </mxCell>
        <mxCell id="H3f5nsP7hotX9z30VJWl-60" value="Commentaires" style="rounded=0;whiteSpace=wrap;html=1;" parent="1" vertex="1">
          <mxGeometry x="1542.5" y="-38" width="305" height="152" as="geometry" />
        </mxCell>
        <mxCell id="H3f5nsP7hotX9z30VJWl-61" value="" style="rounded=0;whiteSpace=wrap;html=1;" parent="1" vertex="1">
          <mxGeometry x="850" y="345" width="370" height="240" as="geometry" />
        </mxCell>
        <mxCell id="H3f5nsP7hotX9z30VJWl-62" value="" style="ellipse;whiteSpace=wrap;html=1;aspect=fixed;" parent="1" vertex="1">
          <mxGeometry x="1190" y="355" width="20" height="20" as="geometry" />
        </mxCell>
        <mxCell id="H3f5nsP7hotX9z30VJWl-64" value="" style="shape=partialRectangle;whiteSpace=wrap;html=1;top=0;bottom=0;fillColor=none;rotation=90;" parent="1" vertex="1">
          <mxGeometry x="1197.5" y="360" width="5" height="10" as="geometry" />
        </mxCell>
        <mxCell id="H3f5nsP7hotX9z30VJWl-67" value="" style="line;strokeWidth=2;html=1;" parent="1" vertex="1">
          <mxGeometry x="850" y="535" width="370" height="10" as="geometry" />
        </mxCell>
        <mxCell id="H3f5nsP7hotX9z30VJWl-68" value="" style="shape=umlActor;verticalLabelPosition=bottom;verticalAlign=top;html=1;outlineConnect=0;" parent="1" vertex="1">
          <mxGeometry x="860" y="505" width="20" height="35" as="geometry" />
        </mxCell>
        <mxCell id="H3f5nsP7hotX9z30VJWl-71" value="Ennemi&lt;br&gt;" style="shape=umlActor;verticalLabelPosition=bottom;verticalAlign=top;html=1;outlineConnect=0;" parent="1" vertex="1">
          <mxGeometry x="1060" y="520" width="10" height="20" as="geometry" />
        </mxCell>
        <mxCell id="H3f5nsP7hotX9z30VJWl-72" value="Boss" style="shape=umlActor;verticalLabelPosition=bottom;verticalAlign=top;html=1;outlineConnect=0;" parent="1" vertex="1">
          <mxGeometry x="1150" y="480" width="30" height="60" as="geometry" />
        </mxCell>
        <mxCell id="H3f5nsP7hotX9z30VJWl-73" value="" style="rounded=0;whiteSpace=wrap;html=1;fillColor=#E6E6E6;" parent="1" vertex="1">
          <mxGeometry x="1330" y="345" width="370" height="240" as="geometry" />
        </mxCell>
        <mxCell id="H3f5nsP7hotX9z30VJWl-74" value="" style="ellipse;whiteSpace=wrap;html=1;aspect=fixed;" parent="1" vertex="1">
          <mxGeometry x="1670" y="355" width="20" height="20" as="geometry" />
        </mxCell>
        <mxCell id="H3f5nsP7hotX9z30VJWl-75" value="" style="shape=partialRectangle;whiteSpace=wrap;html=1;top=0;bottom=0;fillColor=none;rotation=90;" parent="1" vertex="1">
          <mxGeometry x="1677.5" y="360" width="5" height="10" as="geometry" />
        </mxCell>
        <mxCell id="H3f5nsP7hotX9z30VJWl-76" value="" style="line;strokeWidth=2;html=1;" parent="1" vertex="1">
          <mxGeometry x="1330" y="535" width="370" height="10" as="geometry" />
        </mxCell>
        <mxCell id="H3f5nsP7hotX9z30VJWl-77" value="" style="shape=umlActor;verticalLabelPosition=bottom;verticalAlign=top;html=1;outlineConnect=0;" parent="1" vertex="1">
          <mxGeometry x="1340" y="505" width="20" height="35" as="geometry" />
        </mxCell>
        <mxCell id="H3f5nsP7hotX9z30VJWl-78" value="Ennemi&lt;br&gt;" style="shape=umlActor;verticalLabelPosition=bottom;verticalAlign=top;html=1;outlineConnect=0;" parent="1" vertex="1">
          <mxGeometry x="1540" y="520" width="10" height="20" as="geometry" />
        </mxCell>
        <mxCell id="H3f5nsP7hotX9z30VJWl-79" value="Boss" style="shape=umlActor;verticalLabelPosition=bottom;verticalAlign=top;html=1;outlineConnect=0;" parent="1" vertex="1">
          <mxGeometry x="1630" y="480" width="30" height="60" as="geometry" />
        </mxCell>
        <mxCell id="H3f5nsP7hotX9z30VJWl-80" value="" style="rounded=1;whiteSpace=wrap;html=1;" parent="1" vertex="1">
          <mxGeometry x="1540" y="355" width="120" height="105" as="geometry" />
        </mxCell>
        <mxCell id="H3f5nsP7hotX9z30VJWl-81" value="Menu" style="rounded=0;whiteSpace=wrap;html=1;" parent="1" vertex="1">
          <mxGeometry x="1561.25" y="362" width="77.5" height="20" as="geometry" />
        </mxCell>
        <mxCell id="H3f5nsP7hotX9z30VJWl-82" value="Sauvegarder" style="rounded=0;whiteSpace=wrap;html=1;" parent="1" vertex="1">
          <mxGeometry x="1550" y="391" width="100" height="20" as="geometry" />
        </mxCell>
        <mxCell id="H3f5nsP7hotX9z30VJWl-83" value="Quitter" style="rounded=0;whiteSpace=wrap;html=1;" parent="1" vertex="1">
          <mxGeometry x="1550" y="421" width="100" height="20" as="geometry" />
        </mxCell>
      </root>
    </mxGraphModel>
  </diagram>
</mxfile>
